<svg width="60" height="51" viewBox="0 0 60 51" fill="none" xmlns="http://www.w3.org/2000/svg">
<path d="M60 37.148C59.5977 38.2235 58.9605 39.0626 57.7613 39.3052C57.4967 39.3585 57.2196 39.371 56.9472 39.3726C38.9812 39.3757 21.0168 39.3757 3.05082 39.3741C1.15184 39.3741 0.00273967 38.2109 0.00117415 36.2979C-0.000391382 33.3484 -0.000391382 30.4005 0.00117415 27.4511C0.00273967 25.5364 1.1534 24.3764 3.05239 24.3764C21.0184 24.3748 38.9828 24.3795 56.9488 24.3701C58.5425 24.3686 59.474 25.1858 60 26.6026C60 30.1172 60 33.6333 60 37.148ZM15.024 37.5002C15.2306 37.5002 15.384 37.5002 15.5375 37.5002C29.3204 37.5002 43.1033 37.5002 56.8862 37.5002C57.8083 37.5002 58.1229 37.1887 58.1229 36.276C58.1261 33.4063 58.1245 30.5367 58.1245 27.6671C58.1245 26.5039 57.8756 26.2519 56.728 26.2519C43.0422 26.2519 29.3579 26.2519 15.6721 26.2519C15.4639 26.2519 15.2557 26.2519 15.024 26.2519C15.024 30.0185 15.024 33.7194 15.024 37.5002ZM13.0999 26.2503C9.7184 26.2503 6.40105 26.2488 3.08526 26.2519C2.18039 26.2519 1.87511 26.5681 1.87511 27.498C1.87354 30.4052 1.87354 33.3124 1.87511 36.2196C1.87511 37.209 2.16943 37.4986 3.17137 37.5002C6.29303 37.5018 9.41469 37.5018 12.5363 37.5002C12.7226 37.5002 12.9105 37.483 13.0999 37.4751C13.0999 33.7163 13.0999 30.0154 13.0999 26.2503Z" fill="white"/>
<path d="M4.69113 15.0005C4.69113 17.1014 4.69113 19.1116 4.69113 21.1233C4.69113 21.319 4.70366 21.5178 4.67235 21.7072C4.59407 22.18 4.18234 22.5228 3.72364 22.4915C3.23519 22.4587 2.93148 22.1816 2.83598 21.7041C2.79841 21.5162 2.8172 21.3143 2.8172 21.1201C2.8172 16.0619 2.81563 11.0037 2.8172 5.94548C2.81876 2.39173 5.21402 0.00117415 8.77559 0.00117415C22.9358 -0.000391382 37.0944 -0.000391382 51.2546 0.00117415C54.7849 0.00117415 57.188 2.39173 57.1911 5.90791C57.1958 11.0053 57.1926 16.1026 57.1926 21.2C57.1926 21.3362 57.2005 21.4739 57.1848 21.6101C57.13 22.1299 56.7512 22.49 56.2627 22.4947C55.7758 22.4994 55.3829 22.1424 55.325 21.6274C55.3062 21.4536 55.3156 21.2767 55.3156 21.0998C55.3156 17.4286 55.3156 13.7559 55.3156 10.0847C55.3156 9.87339 55.3156 9.66048 55.3156 9.41156C46.5377 9.41156 37.7989 9.41156 29.0194 9.41156C28.9897 9.52741 28.9552 9.65265 28.9271 9.77946C28.2226 12.9042 25.6191 14.9911 22.3785 14.9958C16.7347 15.0052 11.0894 14.9989 5.44572 14.9989C5.21402 15.0005 4.98389 15.0005 4.69113 15.0005ZM55.3156 7.50005C55.3156 6.89576 55.3171 6.35252 55.3156 5.81084C55.3031 3.46569 53.7203 1.87668 51.3767 1.87668C37.1257 1.87354 22.8747 1.87354 8.6253 1.87668C6.28641 1.87668 4.69896 3.47195 4.6927 5.81554C4.688 8.06051 4.69113 10.3055 4.69113 12.5504C4.69113 12.7352 4.69113 12.9199 4.69113 13.1172C10.7779 13.1172 16.7692 13.15 22.762 13.0999C25.0806 13.0812 26.9905 11.1305 27.1784 8.80413C27.2676 7.69261 27.4742 7.50005 28.5795 7.49848C37.2275 7.49848 45.8755 7.49848 54.5234 7.49848C54.7567 7.50005 54.99 7.50005 55.3156 7.50005Z" fill="white"/>
<path d="M29.9708 50.6254C22.9213 50.6254 15.8717 50.6254 8.82214 50.6254C5.18698 50.6254 2.81677 48.2505 2.81521 44.6106C2.81521 43.8498 2.80738 43.0874 2.81834 42.3265C2.82617 41.6737 3.18154 41.2682 3.73104 41.2557C4.30089 41.2416 4.67975 41.6627 4.68758 42.3438C4.69697 43.1641 4.68758 43.9844 4.69071 44.8048C4.7001 47.1499 6.28285 48.7483 8.62018 48.7499C13.4624 48.7546 18.3061 48.7515 23.1498 48.7515C32.4835 48.7515 41.8187 48.7515 51.1524 48.7515C53.8122 48.7515 55.3136 47.2407 55.3152 44.5668C55.3152 43.806 55.3058 43.0435 55.3183 42.2827C55.3292 41.6502 55.7253 41.2416 56.2748 41.2573C56.804 41.2714 57.1813 41.6674 57.1828 42.2733C57.186 43.4052 57.2705 44.5511 57.128 45.6674C56.7476 48.6419 54.4259 50.6191 51.4123 50.6254C47.5267 50.6348 43.6395 50.627 39.7538 50.6285C36.4928 50.6254 33.2318 50.6254 29.9708 50.6254Z" fill="white"/>
<path d="M18.7396 32.8097C18.4265 32.8097 18.1134 32.8269 17.8035 32.8066C17.2493 32.769 16.8751 32.3745 16.8829 31.8626C16.8892 31.3725 17.2477 30.9733 17.769 30.9499C18.4312 30.9217 19.0982 30.9185 19.7588 30.9514C20.2739 30.9765 20.6292 31.3992 20.6214 31.886C20.6152 32.3729 20.2551 32.7612 19.7338 32.8019C19.4034 32.8269 19.07 32.8066 18.7381 32.8066C18.7396 32.8081 18.7396 32.8081 18.7396 32.8097Z" fill="white"/>
<path d="M24.3616 32.8132C24.108 32.8132 23.8544 32.8179 23.6008 32.8117C22.9182 32.7976 22.4971 32.4297 22.508 31.8598C22.5174 31.3103 22.9229 30.9518 23.5726 30.9393C24.1189 30.9299 24.6669 30.9283 25.2133 30.9393C25.8504 30.9534 26.2575 31.3369 26.2496 31.888C26.2402 32.4375 25.8332 32.7929 25.1851 32.8101C24.908 32.8179 24.634 32.8132 24.3616 32.8132Z" fill="white"/>
<path d="M29.9881 32.8099C29.675 32.8099 29.3619 32.8271 29.0519 32.8068C28.4993 32.7692 28.1251 32.3731 28.1329 31.8627C28.1408 31.3727 28.4977 30.9735 29.0206 30.9516C29.6828 30.9234 30.3497 30.9203 31.0104 30.9547C31.5254 30.9813 31.8792 31.404 31.8714 31.8909C31.8636 32.3778 31.5035 32.752 30.9838 32.8099C30.9446 32.8146 30.9055 32.8146 30.8663 32.8146C30.5736 32.8146 30.2808 32.8146 29.9881 32.8146C29.9881 32.8115 29.9881 32.8099 29.9881 32.8099Z" fill="white"/>
<path d="M35.6803 32.8067C35.3296 32.8067 34.9758 32.8301 34.6267 32.8004C34.1101 32.7566 33.7547 32.3558 33.7578 31.8689C33.761 31.3789 34.1179 30.9734 34.6377 30.9499C35.2999 30.9202 35.9652 30.9186 36.6274 30.9515C37.1441 30.9766 37.4994 31.393 37.4963 31.8799C37.4932 32.3667 37.1347 32.7581 36.6149 32.802C36.3065 32.8286 35.9918 32.8067 35.6803 32.8067Z" fill="white"/>
<path d="M41.2474 30.9437C41.5793 30.9437 41.9127 30.9218 42.2431 30.9484C42.7628 30.9907 43.1197 31.3805 43.1229 31.8705C43.126 32.3574 42.7691 32.7738 42.2524 32.7989C41.5902 32.8318 40.9249 32.8302 40.2627 32.8005C39.7429 32.777 39.386 32.3684 39.3828 31.8799C39.3797 31.3915 39.7351 30.9923 40.2517 30.9484C40.5805 30.9203 40.9155 30.9437 41.2474 30.9437Z" fill="white"/>
<path d="M10.3895 30.9252C10.2533 31.4277 10.1687 31.9537 9.96519 32.4281C9.8196 32.7678 9.88692 32.9494 10.1264 33.178C10.69 33.7165 11.2395 34.2707 11.7843 34.8296C12.2728 35.3306 12.3072 35.8644 11.8986 36.2715C11.4885 36.6801 10.9577 36.6425 10.4568 36.1525C9.89944 35.6077 9.34368 35.0598 8.80514 34.4946C8.57501 34.2535 8.3934 34.1925 8.05682 34.3427C6.59618 34.9956 5.00717 34.6825 3.9066 33.5772C2.81856 32.4845 2.51485 30.825 3.14576 29.4113C3.77823 27.9945 5.18877 27.1257 6.75273 27.1899C8.70964 27.2744 10.3159 28.9479 10.3895 30.9252ZM8.43567 31.0238C8.48264 30.0031 7.68735 29.1248 6.66663 29.0669C5.64747 29.0106 4.75512 29.8027 4.69563 30.8187C4.63457 31.8661 5.45021 32.7678 6.49285 32.807C7.51358 32.8461 8.38871 32.043 8.43567 31.0238Z" fill="white"/>
<path d="M43.5364 5.62635C41.0363 5.62635 38.5377 5.62635 36.0375 5.62635C35.8622 5.62635 35.6822 5.64357 35.5115 5.61226C35.0074 5.51676 34.7021 5.20835 34.7021 4.69016C34.7021 4.17197 35.0059 3.86044 35.5115 3.76807C35.701 3.73363 35.9013 3.75241 36.0955 3.75241C41.0942 3.75241 46.0945 3.75241 51.0932 3.75241C51.2889 3.75241 51.4877 3.73363 51.6772 3.7665C52.1828 3.8573 52.4865 4.17041 52.4881 4.6886C52.4881 5.20679 52.1813 5.51676 51.6787 5.61226C51.5081 5.64514 51.328 5.62635 51.1527 5.62635C48.6134 5.62635 46.0741 5.62635 43.5364 5.62635Z" fill="white"/>
<path d="M9.39141 5.62744C10.9162 5.62901 12.1843 6.89865 12.1812 8.42347C12.1796 9.98587 10.91 11.2539 9.35384 11.2446C7.82589 11.2352 6.5672 9.97491 6.56251 8.44696C6.55937 6.89239 7.82902 5.62588 9.39141 5.62744ZM9.36636 7.50294C8.86383 7.50608 8.44427 7.92564 8.43957 8.42817C8.43488 8.93227 8.84661 9.35809 9.34914 9.37062C9.8736 9.38314 10.3166 8.9401 10.3057 8.41565C10.2947 7.91311 9.8689 7.49981 9.36636 7.50294Z" fill="white"/>
<path d="M18.7499 8.44546C18.7374 10.0079 17.4584 11.265 15.9023 11.2462C14.3743 11.2274 13.1266 9.95776 13.1328 8.42667C13.1375 6.87367 14.4181 5.61655 15.9821 5.62751C17.5022 5.63847 18.7609 6.91907 18.7499 8.44546ZM15.9367 7.50301C15.4342 7.50458 15.013 7.92257 15.0068 8.42511C15.0005 8.92921 15.4107 9.3566 15.9132 9.37069C16.4377 9.38478 16.8823 8.9433 16.8744 8.41885C16.8635 7.91631 16.4392 7.50145 15.9367 7.50301Z" fill="white"/>
<path d="M25.3062 8.46144C25.3031 9.9847 24.0288 11.2512 22.504 11.2481C20.9431 11.2449 19.6766 9.97061 19.6876 8.41604C19.6985 6.88652 20.9588 5.6341 22.4899 5.6294C24.046 5.62627 25.3109 6.89748 25.3062 8.46144ZM23.4307 8.46144C23.4448 7.96047 23.0378 7.52525 22.5368 7.50177C22.0359 7.47985 21.5944 7.87906 21.5662 8.3816C21.5365 8.90605 21.9623 9.36162 22.4883 9.36944C22.9893 9.37884 23.4167 8.96554 23.4307 8.46144Z" fill="white"/>
</svg>
